<svg xmlns="http://www.w3.org/2000/svg" fill="none" viewBox="0 0 1440 1334" height="1334" width="1440">
                <g clip-path="url(#clip0_4054_452)">
                <g opacity="0.15">
                <path stroke-linejoin="round" stroke-linecap="round" stroke-width="1.08501" stroke="#EBEBEB" d="M-631.996 532.965L-590.819 654.357L-512.744 798.521L-410.186 930.741L-285.113 1049.14L-139.794 1151.87L23.2035 1237.13L200.882 1303.18L319.364 1331.52"/>
                <path stroke-linejoin="round" stroke-linecap="round" stroke-width="1.08501" stroke="#EBEBEB" d="M783.968 -205.105L773.823 -96.8542L763.594 21.4554L754.347 137.455L746.086 250.285L738.81 359.264L732.518 463.792L727.167 563.354L722.673 657.522L719.077 745.998L716.295 828.438L715.011 877.064"/>
                <path stroke-linejoin="round" stroke-linecap="round" stroke-width="1.08501" stroke="#EBEBEB" d="M2101.45 1111.02L2017.34 1047.46L1913.67 972.595L1812.23 904.066L1713.52 843.285L1618.15 791.706L1526.64 750.615L1439.62 721.251L1357.69 704.814L1269.64 698.607L1190.2 702.032L1119.1 713.974L1055.97 733.536L1000.32 759.646L965.007 791.663L921.862 818.16L918.609 820.599L917.41 821.626L912.658 824.879"/>
                <path stroke-linejoin="round" stroke-linecap="round" stroke-width="1.08501" stroke="#EBEBEB" d="M-262.072 -205.105L-328.503 -111.836L-382.821 -6.79559L-420.361 104.453L-439.708 220.751L-439.322 340.859L-417.578 463.363L-372.72 586.724L-305.389 705.248L-218.411 813.457L-113.414 909.98L7.63592 993.362L142.554 1062.36L289.029 1115.65L444.407 1152.12L605.907 1170.74L770.659 1170.66L935.668 1151.22L1097.85 1112.06L1254 1053.03L1394.78 977.866L1516.35 889.99L1618.18 791.712L1699.85 685.345L1761.27 573.07L1802.45 456.985L1823.51 338.932L1824.62 220.665L1806.04 103.81L1767.99 -10.2619L1710.72 -120.268L1648.87 -205.105"/>
                <path stroke-linejoin="round" stroke-linecap="round" stroke-width="1.08501" stroke="#EBEBEB" d="M696.027 -205.105L696.156 -100.75L696.326 18.0738L696.583 134.457L696.84 247.717L697.183 357.081L697.525 461.95L697.91 561.812L698.339 656.238L698.766 744.885L699.195 827.497L699.495 877.064"/>
                <path stroke-linejoin="round" stroke-linecap="round" stroke-width="1.08501" stroke="#EBEBEB" d="M1162.55 -205.105L1113.53 -114.233L1059.9 -6.4528L1010.85 100.686L966.417 206.24L926.609 309.569L891.339 409.944L860.478 506.81L833.982 599.651L811.596 688.041L793.19 771.637L778.551 850.183L775.384 871.285"/>
                <path stroke-linejoin="round" stroke-linecap="round" stroke-width="1.08501" stroke="#EBEBEB" d="M932.09 573.512L893.523 655.824L861.036 735.182L834.283 811.245L843.786 827.811L850.419 845.017L852.132 853.064"/>
                <path stroke-linejoin="round" stroke-linecap="round" stroke-width="1.08501" stroke="#EBEBEB" d="M822.51 796.203L804.446 865.974"/>
                <path stroke-linejoin="round" stroke-linecap="round" stroke-width="1.08501" stroke="#EBEBEB" d="M591.353 868.117L572.092 798.988L546.324 720.615L515.205 638.432L478.479 552.866L435.975 464.305L387.435 373.304L332.689 280.376L271.65 186.208L204.277 91.4831L130.568 -2.98543L50.6967 -96.3839L-21.9419 -171.591L-59.3525 -205.105"/>
                <path stroke-linejoin="round" stroke-linecap="round" stroke-width="1.08501" stroke="#EBEBEB" d="M394.384 1331.51L417.669 1244.49L444.378 1152.12L469.889 1072.85L494.116 1007.96L516.888 958.733L541.329 917.812L563.331 890.332L648.51 899.877L735.274 899.835L822.295 889.862L908.159 869.7L991.413 839.182L1067.26 800.058L1133.65 754.002L1190.19 702.038L1236.68 645.28L1272.76 584.713L1298.36 521.448L1313.3 456.387L1317.41 390.468L1310.6 324.55L1292.8 259.531L1263.9 196.181L1224.22 135.699L1176.11 81.4666L1121.02 34.0395L1059.9 -6.45282L993.725 -39.8829L923.397 -66.2069L849.817 -85.2545L773.797 -96.8542L696.151 -100.75L617.692 -96.6838L539.146 -84.4415L461.372 -63.5954L386.422 -34.4039L318.278 1.59486L257.454 43.7561L204.248 91.4831L159.175 144.131L122.707 201.061L95.4407 261.543L77.8484 324.935L70.6143 390.511L74.4239 457.457L89.876 524.959L117.656 592.118L157.078 655.938L206.345 713.595L264.516 764.532L330.434 808.149L403.03 844.018L481.062 871.542L563.331 890.332L583.02 874.881L652.576 882.67L655.701 883.013L662.122 877.105H667.986H683.823L699.49 877.064H714.985H724.916L730.309 876.464L745.505 874.709L760.571 872.996L775.382 871.285L787.88 869.872L789.42 869.487L789.849 869.402L799.223 867.219L804.445 865.977L819.256 862.51L833.551 859.171L838.945 857.887L850.117 855.276L852.3 853.735L859.405 851.124L867.367 848.984L871.562 846.715L877.254 843.891L881.663 842.049L882.605 841.708L883.29 840.808L883.803 840.552L893.777 835.457L900.326 832.077L901.781 831.306L902.252 831.091L907.817 828.224L910.085 827.068L911.156 826.255L912.311 824.5L912.739 824.029L930.589 803.483L947.025 776.859L959.053 748.822L966.544 719.801L969.368 690.181L967.442 660.347L960.636 630.684L948.823 601.534L932.086 573.498L976.988 488.703L1028.44 401.94L1086.74 313.721L1151.97 224.731L1224.22 135.699L1303.5 47.3092L1389.79 -39.5402L1468.42 -108.797L1550.43 -170.178L1605.09 -205.105"/>
                <path stroke-linejoin="round" stroke-linecap="round" stroke-width="1.08501" stroke="#EBEBEB" d="M192.068 -205.105L121.356 -157.637L50.6865 -96.3839L-9.70982 -28.5821L-59.0629 44.9547L-96.6449 123.458L-121.599 206.069L-132.985 291.847L-129.861 379.853L-111.198 468.971L-76.0136 558.089L-24.9483 643.14L39.6856 720.315L116.562 788.716L204.352 847.528L301.432 895.94L406.216 933.265L516.907 958.733L631.707 971.703L748.733 971.617L866.016 958.091L981.629 930.739L1093.35 889.434L1194.75 836.613L1283.01 774.547L1357.7 704.82L1418.53 628.886L1465.23 548.286L1497.63 464.348L1515.65 378.44L1519.25 291.762L1508.46 205.555L1483.21 120.846L1443.48 38.6198L1389.81 -39.5402L1325.43 -109.311L1252.28 -170.092L1197.7 -205.105"/>
                <path stroke-linejoin="round" stroke-linecap="round" stroke-width="1.08501" stroke="#EBEBEB" d="M-383.052 -205.105L-423.501 -149.332L-484.112 -34.8742L-526.573 86.6457L-549.302 213.945L-550.415 345.695L-528.072 480.485L-480.216 616.516L-407.45 747.539L-312.725 867.433L-197.796 974.613L-64.719 1067.41L84.0246 1144.29L245.781 1203.74L417.682 1244.49L596.474 1265.3L778.946 1265.17L961.634 1243.46L1141.07 1199.72L1313.48 1133.89L1468.6 1050.16L1602.15 952.398L1713.53 843.291L1802.43 725.494L1868.73 601.406L1912.61 473.422L1934.27 343.555L1933.97 213.816L1912.14 85.8755L1869.08 -38.6843L1805.13 -158.492L1770.54 -205.105"/>
                <path stroke-linejoin="round" stroke-linecap="round" stroke-width="1.08501" stroke="#EBEBEB" d="M1059.67 -205.105L1037.41 -152.158L993.751 -39.8829L953.771 71.3645L917.559 180.814L885.071 287.696L856.307 391.239L831.139 490.929L809.479 586.253L791.245 676.784L776.264 762.178L764.321 842.178L760.597 872.997"/>
                <path stroke-linejoin="round" stroke-linecap="round" stroke-width="1.08501" stroke="#EBEBEB" d="M833.569 859.179L843.8 827.805L872.478 754.909L861.05 735.176L846.839 717.327L830.23 701.576L811.611 688.049L791.237 676.792L769.449 667.931L746.464 661.468L722.665 657.53L698.352 656.246L673.74 657.616L649.171 661.768L624.943 668.873L601.701 678.675L580.769 690.746L562.278 704.786L546.313 720.623L533.043 737.916L561.08 813.551L577.088 864.872"/>
                <path stroke-linejoin="round" stroke-linecap="round" stroke-width="1.08501" stroke="#EBEBEB" d="M1416.77 -205.105L1396.23 -185.844L1325.43 -109.311L1247.7 -14.4137L1176.13 81.4666L1110.81 177.476L1051.78 272.8L998.964 366.797L952.222 458.783L911.429 548.201L876.373 634.493L846.839 717.319L822.527 796.207L834.298 811.231L819.273 862.51"/>
                <path stroke-linejoin="round" stroke-linecap="round" stroke-width="1.08501" stroke="#EBEBEB" d="M683.846 877.106L681.963 828.481L678.239 746.041L673.745 657.608L668.395 563.439L662.187 463.877L655.125 359.349L647.12 250.371L638.218 137.583L628.415 21.584L617.714 -96.6838L607.228 -205.105"/>
                <path stroke-linejoin="round" stroke-linecap="round" stroke-width="1.08501" stroke="#EBEBEB" d="M-128.648 -205.105L-173.036 -156.908L-235.572 -67.4484L-283.898 28.433L-316.9 129.75L-333.251 235.432L-331.667 344.282L-310.736 455.059L-269.002 566.307L-207.15 672.974L-127.835 770.139L-32.5962 856.603L76.8537 931.21L198.546 992.805L330.339 1040.36L469.922 1072.85L614.942 1089.41L762.829 1089.37L910.974 1072.03L1056.72 1037.11L1197.25 984.501L1324.25 917.342L1434.21 838.71L1526.67 750.621L1601.19 655.082L1657.69 554.022L1696.04 449.28L1716.24 342.528L1718.47 235.347L1702.85 129.15L1669.42 25.2656L1618.39 -75.1533L1550.46 -170.178L1517.16 -205.105"/>
                <path stroke-linejoin="round" stroke-linecap="round" stroke-width="1.08501" stroke="#EBEBEB" d="M668.007 877.106L664.754 831.434L657.777 749.551L649.174 661.76L638.9 568.404L626.915 469.784L613.089 366.284L597.424 258.461L579.873 146.957L560.44 32.3707L539.167 -84.4414L516.096 -202.581L515.539 -205.105"/>
                <path stroke-linejoin="round" stroke-linecap="round" stroke-width="1.08501" stroke="#EBEBEB" d="M2101.45 877.372L2016.91 830.202L1908.32 774.215L1802.42 725.503L1699.82 685.354L1601.16 655.091L1507.16 635.915L1418.51 628.895L1322.97 632.79L1236.68 645.289L1159.25 665.321L1090.38 692.03L1029.55 724.519L1000.32 759.661L962.608 784.359L951.736 791.507L921.688 817.917"/>
                <path stroke-linejoin="round" stroke-linecap="round" stroke-width="1.08501" stroke="#EBEBEB" d="M1712.56 1331.52L1705.84 1323.04L1624.51 1224.21L1545.37 1132.78L1468.62 1050.16L1394.78 977.869L1324.24 917.344L1257.38 869.874L1194.76 836.616L1127.6 812.603L1067.29 800.061L1013.49 797.879L965.803 804.855L923.94 819.965"/>
                <path stroke-linejoin="round" stroke-linecap="round" stroke-width="1.08501" stroke="#EBEBEB" d="M473.254 824.928L431.392 810.718L383.922 804.768L330.46 808.149L270.706 822.018L204.36 847.529L142.551 882.2L76.847 931.211L7.63285 993.362L-64.7059 1067.41L-139.784 1151.87L-217.131 1245.31L-285.018 1331.51"/>
                <path stroke-linejoin="round" stroke-linecap="round" stroke-width="1.08501" stroke="#EBEBEB" d="M651.921 875.951L647.77 836.485L637.539 755.5L624.955 668.865L609.802 576.794L592.039 479.715L571.536 378.012L548.25 272.201L522.14 162.837L493.204 50.648L461.401 -63.5954L426.815 -179.039L418.426 -205.105"/>
                <path stroke-linejoin="round" stroke-linecap="round" stroke-width="1.08501" stroke="#EBEBEB" d="M846.885 855.019L850.437 845.003L880.529 775.405L917.126 703.836L907.41 679.352L893.541 655.81L876.377 634.493L856.431 615.746L834.001 599.652L809.475 586.253L783.278 575.724L755.713 568.062L727.163 563.354L697.928 561.812L668.393 563.44L638.901 568.404L609.794 576.794L581.886 588.479L556.717 602.862L534.417 619.598L515.198 638.432L499.146 659.063L486.477 681.236L522.56 756.485L552.394 829.123L563.609 861.783"/>
                <path stroke-linejoin="round" stroke-linecap="round" stroke-width="1.08501" stroke="#EBEBEB" d="M635.716 874.153L631.478 843.505L618.167 763.761L601.687 678.667L581.868 588.479L558.583 493.583L531.659 394.364L501.055 291.292L466.64 185.009L428.459 76.2019L386.426 -34.4039L340.711 -145.993L314.558 -205.105"/>
                <path stroke-linejoin="round" stroke-linecap="round" stroke-width="1.08501" stroke="#EBEBEB" d="M17.3472 -205.105L-21.947 -171.591L-89.7483 -96.7256L-145.479 -15.3982L-188.24 71.6215L-217.004 163.35L-230.744 258.846L-228.262 356.953L-208.358 456.6L-169.877 556.419L-113.462 651.915L-41.6367 738.721L44.2282 815.811L142.549 882.2L251.57 936.946L369.452 979.151L494.14 1007.96L623.579 1022.68L755.501 1022.6L887.68 1007.27L1017.89 976.283L1143.6 929.54L1257.38 869.872L1356.25 799.845L1439.64 721.257L1507.18 635.906L1558.72 545.418L1594.12 451.421L1613.33 355.369L1616.42 258.76L1603.32 162.794L1574.21 68.7112L1529.05 -22.3757L1468.44 -108.797L1396.23 -185.844L1372.69 -205.105"/>
                <path stroke-linejoin="round" stroke-linecap="round" stroke-width="1.08501" stroke="#EBEBEB" d="M1426.96 1331.52L1439.5 1326.64L1624.5 1224.21L1782.83 1105.05L1913.68 972.61L2016.93 830.201L2092.69 680.944L2101.46 653.379"/>
                <path stroke-linejoin="round" stroke-linecap="round" stroke-width="1.08501" stroke="#EBEBEB" d="M540.922 856.643L512.799 858.868L481.082 871.538L445.64 895.893L406.218 933.261L369.449 979.147L330.326 1040.36L289.02 1115.65L245.789 1203.74L200.886 1303.17L188.816 1331.51"/>
                <path stroke-linejoin="round" stroke-linecap="round" stroke-width="1.08501" stroke="#EBEBEB" d="M1200.22 1331.52L1186.09 1298.69L1141.06 1199.73L1097.83 1112.07L1056.7 1037.12L1017.87 976.292L981.62 930.748L942.882 893.766L908.168 869.71L877.349 857.297L850.126 855.285"/>
                <path stroke-linejoin="round" stroke-linecap="round" stroke-width="1.08501" stroke="#EBEBEB" d="M963.78 -205.105L956.631 -181.992L923.415 -66.2069L893.025 48.3364L865.458 160.782L840.761 270.403L818.845 376.471L799.712 478.43L783.275 575.724L769.449 667.923L758.064 754.73L749.032 835.843L745.522 874.709"/>
                <path stroke-linejoin="round" stroke-linecap="round" stroke-width="1.08501" stroke="#EBEBEB" d="M620.272 872.398L616.847 852.066L600.753 773.906L580.763 690.738L556.707 602.862L528.371 510.619L495.626 414.439L458.301 314.834L416.353 212.361L369.654 107.705L318.29 1.59488L262.302 -105.159L205.458 -205.105"/>
                <path stroke-linejoin="round" stroke-linecap="round" stroke-width="1.08501" stroke="#EBEBEB" d="M822.515 796.211L808.732 783.027L793.194 771.641L776.244 762.182L758.052 754.734L738.919 749.298L719.058 746.002L698.768 744.889L678.222 746.044L657.763 749.555L637.516 755.504L618.169 763.765L600.748 773.91L585.338 785.724L572.069 798.992L561.069 813.546L552.379 829.127L546.13 845.521L543.861 856.008"/>
                <path stroke-linejoin="round" stroke-linecap="round" stroke-width="1.08501" stroke="#EBEBEB" d="M655.722 883.008L648.531 899.872L640.528 928.979L631.71 971.697L623.576 1022.68L614.931 1089.41L605.899 1170.74L596.482 1265.29L590.403 1331.51"/>
                <path stroke-linejoin="round" stroke-linecap="round" stroke-width="1.08501" stroke="#EBEBEB" d="M600.495 870.22L583.031 874.886L566.809 871.204L512.79 858.877L510.693 858.149L446.059 835.377L403.041 844.023L354.93 863.799L301.425 895.945L251.558 936.952L198.524 992.81L142.536 1062.37L84.0231 1144.29L23.1989 1237.14L-34.7578 1331.52"/>
                <path stroke-linejoin="round" stroke-linecap="round" stroke-width="1.08501" stroke="#EBEBEB" d="M1052.77 1331.51L1186.1 1298.68L1375.43 1225.57L1545.36 1132.77L1691.15 1024.57L1812.24 904.072L1908.33 774.206L1979.47 637.832L2025.83 497.392L2047.75 355.326L2045.78 213.73L2020.35 74.4472L1971.94 -60.8564L1901.01 -190.681L1890.1 -205.105"/>
                <path stroke-linejoin="round" stroke-linecap="round" stroke-width="1.08501" stroke="#EBEBEB" d="M984.625 1331.52L961.64 1243.47L935.658 1151.23L910.96 1072.04L887.675 1007.28L866.016 958.096L842.944 917.304L822.313 889.867L803.993 874.5L787.898 869.877"/>
                <path stroke-linejoin="round" stroke-linecap="round" stroke-width="1.08501" stroke="#EBEBEB" d="M791.58 859.774L778.569 850.186L764.315 842.181L749.034 835.847L732.982 831.223L716.289 828.442L699.21 827.5L681.96 828.484L664.753 831.438L647.76 836.488L631.494 843.509L616.856 852.069L603.929 862.086"/>
                <path stroke-linejoin="round" stroke-linecap="round" stroke-width="1.08501" stroke="#EBEBEB" d="M478.552 825.83L475.556 823.904L474.956 823.133L445.079 797.537L418.926 767.488L397.653 734.058L389.734 728.195L340.166 691.468L274.591 653.073L200.583 619.686L117.671 592.121L25.6007 571.275L-76.0163 558.092L-169.885 556.422L-269.019 566.31L-372.733 586.727L-480.214 616.519L-590.819 654.358L-631.996 670.622"/>
                <path stroke-linejoin="round" stroke-linecap="round" stroke-width="1.08501" stroke="#EBEBEB" d="M932.119 573.504L911.444 548.208L887.432 525.907L860.508 506.817L831.145 490.935L799.726 478.437L766.725 469.363L732.524 463.798L697.553 461.957L662.197 463.884L626.926 469.79L592.042 479.721L558.612 493.59L528.392 510.626L501.639 530.486L478.483 552.873L459.178 577.4L443.854 603.767L432.726 631.59L477.327 704.57L515.037 776.053L546.156 845.524L550.992 858.493"/>
                <path stroke-linejoin="round" stroke-linecap="round" stroke-width="1.08501" stroke="#EBEBEB" d="M1278.55 -205.105L1252.27 -170.092L1184 -68.3043L1121.04 34.0395L1063.51 136.042L1011.41 236.931L964.758 335.979L923.494 432.502L887.411 525.9L856.421 615.746L830.224 701.568L808.737 783.023L791.572 859.771L799.234 867.219"/>
                <path stroke-linejoin="round" stroke-linecap="round" stroke-width="1.08501" stroke="#EBEBEB" d="M532.191 -205.105L516.097 -202.581L426.808 -179.039L340.73 -145.993L262.312 -105.159L192.114 -57.2605L130.562 -2.98545L78.2556 56.94L35.7088 121.873L3.56297 191.045L-17.4111 263.64L-26.5283 338.889L-22.9329 415.893L-5.85421 493.669L25.6071 571.272L70.6364 645.151L127.266 712.054L194.383 771.209L270.702 822.017L354.941 863.794L445.642 895.897L541.351 917.812L640.528 928.984L741.631 928.942L842.947 917.299L942.895 893.757L1039.63 858.144L1127.59 812.601L1204.38 759.01L1269.66 698.613L1322.99 632.781L1364.21 562.754L1393.15 489.645L1409.67 414.653L1413.65 338.846L1405.05 263.212L1383.82 188.734L1349.83 116.309L1303.52 47.3092L1247.7 -14.4138L1184.01 -68.3043L1113.55 -114.233L1037.41 -152.158L956.635 -181.992L872.183 -203.522L861.867 -205.105"/>
                <path stroke-linejoin="round" stroke-linecap="round" stroke-width="1.08501" stroke="#EBEBEB" d="M596.74 869.359L603.931 862.082L585.354 785.72L562.283 704.778L534.417 619.597L501.629 530.479L463.662 437.895L420.344 342.313L371.591 244.293L317.316 144.56L257.476 43.7561L192.114 -57.2605L121.359 -157.637L83.9912 -205.105"/>
                <path stroke-linejoin="round" stroke-linecap="round" stroke-width="1.08501" stroke="#EBEBEB" d="M791.588 859.77L789.876 869.4"/>
                <path stroke-linejoin="round" stroke-linecap="round" stroke-width="1.08501" stroke="#EBEBEB" d="M605.64 870.77L603.929 862.082"/>
                <path stroke-linejoin="round" stroke-linecap="round" stroke-width="1.08501" stroke="#EBEBEB" d="M515.275 845.603L511.294 838.198L509.239 817.138L510.524 796.335L515.018 776.046L522.552 756.484L533.038 737.908L499.138 659.063L459.159 577.393L412.802 493.326L359.768 407.375L299.928 320.056L233.068 232.093L159.189 144.131L78.2466 56.9401L-9.71512 -28.5821L-89.7588 -96.7256L-173.055 -156.908L-251.301 -205.105"/>
                <path stroke-linejoin="round" stroke-linecap="round" stroke-width="1.08501" stroke="#EBEBEB" d="M494.775 835.501L490.151 828.951L479.193 804.126L474.443 798.433L467.765 790.428L434.421 750.407L428.856 744.885L382.2 698.657L375.651 693.349L322.017 649.518L311.402 607.142L308.02 564.851L311.488 523.246L242.146 455.487L164.328 389.141L77.8642 324.935L-17.4174 263.641L-121.602 206.07L-217.012 163.35L-316.916 129.75L-420.374 104.453L-526.57 86.6461L-631.996 75.5605"/>
                <path stroke-linejoin="round" stroke-linecap="round" stroke-width="1.08501" stroke="#EBEBEB" d="M784.386 1331.53L778.95 1265.18L770.646 1170.67L762.812 1089.38L755.493 1022.61L748.731 971.629L741.625 928.954L735.29 899.847L729.768 882.983L724.932 877.076"/>
                <path stroke-linejoin="round" stroke-linecap="round" stroke-width="1.08501" stroke="#EBEBEB" d="M494.132 835.208L490.151 828.957L483.774 821.681L447.476 780.119L440.456 773.612L397.653 734.061L382.2 698.663L373.04 662.836L369.958 627.052L308.02 564.857L237.694 504.247L158.635 445.905L70.6299 390.517L-26.5348 338.895L-132.988 291.854L-230.752 258.852L-333.268 235.439L-439.721 220.757L-549.299 213.951L-631.996 213.865"/>
                <path stroke-linejoin="round" stroke-linecap="round" stroke-width="1.08501" stroke="#EBEBEB" d="M512.983 844.447L511.313 838.197L508.231 833.489L472.619 778.956L470.222 753.745L471.848 728.876L477.327 704.564L486.488 681.236L443.854 603.76L394.374 524.53L337.701 444.016L273.666 362.817L202.055 281.618L122.739 201.061L35.7192 121.873L-59.0488 44.9547L-145.47 -15.3982L-235.572 -67.4484L-328.5 -111.836L-423.482 -149.332L-519.79 -180.75L-609.679 -205.105"/>
                <path stroke-linejoin="round" stroke-linecap="round" stroke-width="1.08501" stroke="#EBEBEB" d="M2101.48 216.469L2045.79 213.729L1933.99 213.814L1824.62 220.663L1718.47 235.345L1616.42 258.758L1519.26 291.76L1413.66 338.844L1317.44 390.466L1230.42 445.812L1152.38 504.196L1083.13 564.806L1022.26 627.001L1019.05 662.228L1010.23 696.771L996.022 730.159L976.461 761.919L951.763 791.496L922.999 819.234L912.769 825.269L910.971 826.082L906.562 827.238L901.811 831.304"/>
                <path stroke-linejoin="round" stroke-linecap="round" stroke-width="1.08501" stroke="#EBEBEB" d="M2101.47 363.593L2047.75 355.332L1934.28 343.561L1823.5 338.938L1716.23 342.533L1613.33 355.375L1515.65 378.445L1409.67 414.658L1313.32 456.392L1226.34 502.791L1148.57 553.043L1085.95 601.497L1079.57 606.462L1024.39 657.314L1019.04 662.236L971.018 714.928L966.566 719.807L931.124 766.249L921.708 778.535L915.373 802.804L905.27 826.218L902.274 831.097"/>
                <path stroke-linejoin="round" stroke-linecap="round" stroke-width="1.08501" stroke="#EBEBEB" d="M1442.46 1331.52L1439.51 1326.64L1375.43 1225.58L1313.5 1133.9L1254 1053.04L1197.24 984.512L1143.61 929.551L1093.35 889.444L1039.64 858.154L991.439 839.193L948.549 831.273L910.582 833.2L890.764 840.006L882.161 842.959L877.28 843.901"/>
                <path stroke-linejoin="round" stroke-linecap="round" stroke-width="1.08501" stroke="#EBEBEB" d="M1952.58 -205.105L1901 -190.681L1805.12 -158.492L1710.7 -120.268L1618.37 -75.1533L1529.04 -22.3758L1443.47 38.6198L1349.82 116.309L1263.91 196.181L1185.79 277.38L1115.38 359.221L1052.54 440.934L997.112 521.876L948.83 601.534L907.395 679.352L872.468 754.901L880.514 775.404L885.052 796.206L886.208 817.138L884.067 837.855L882.27 841.322"/>
                <path stroke-linejoin="round" stroke-linecap="round" stroke-width="1.08501" stroke="#EBEBEB" d="M2101.48 -80.8379L2075.84 -77.7561L1971.96 -60.8488L1869.1 -38.6767L1768 -10.2543L1669.42 25.2732L1574.22 68.7188L1483.22 120.854L1383.83 188.741L1292.83 259.539L1210.26 332.433L1135.95 406.656L1069.74 481.52L1011.39 556.384L960.671 630.692L917.14 703.843L922.705 728.712L924.203 753.753L921.72 778.537L891.586 826.048L884.095 837.862L883.325 840.816"/>
                <path stroke-linejoin="round" stroke-linecap="round" stroke-width="1.08501" stroke="#EBEBEB" d="M872.521 -205.105L872.178 -203.522L849.834 -85.2545L829.374 31.6433L810.84 146.271L794.232 257.904L779.551 365.77L766.71 469.356L755.709 568.061L746.463 661.46L738.93 749.294L732.979 831.22L730.326 876.464"/>
                <path stroke-linejoin="round" stroke-linecap="round" stroke-width="1.08501" stroke="#EBEBEB" d="M2101.46 517.26L2025.83 497.399L1912.61 473.429L1802.43 456.992L1696.02 449.287L1594.11 451.427L1497.63 464.354L1393.14 489.652L1298.37 521.455L1213.07 558.866L1136.83 601.07L1076.48 642.419L1069.37 647.298L1052.64 686.849L1003.11 724.731L996.007 730.167L953.374 770.788L947.039 776.866L918.532 810.553L905.263 826.219"/>
                <path stroke-linejoin="round" stroke-linecap="round" stroke-width="1.08501" stroke="#EBEBEB" d="M859.842 850.274L860.269 849.374L885.053 796.212L922.678 728.71L967.451 660.352L1019.71 591.609L1079.85 522.994L1069.71 481.517L1052.55 440.939L1028.45 401.945L998.955 366.802L964.754 335.984L926.616 309.574L885.053 287.701L840.752 270.408L794.223 257.909L746.069 250.29L696.844 247.723L647.106 250.376L597.411 258.466L548.229 272.206L501.059 291.297L458.298 314.839L420.331 342.319L387.415 373.309L359.763 407.38L337.677 444.021L321.497 482.802L311.48 523.251L372.69 591.78L425.981 660.524L471.824 728.881L510.519 796.34L537.785 852.884L538.384 854.083"/>
                <path stroke-linejoin="round" stroke-linecap="round" stroke-width="1.08501" stroke="#EBEBEB" d="M838.962 857.886L845.94 855.319L846.795 855.019H846.881L852.317 853.734L859.422 851.124L871.579 846.715L880.867 844.018L882.152 842.52L882.622 841.707L890.755 839.995L910.573 833.189L923.414 826.597L965.791 804.853L978.032 796.42L1014.37 771.38L1055.98 733.542L1090.39 692.021L1117.4 647.634L1136.83 601.063L1148.56 553.037L1152.37 504.198L1148.22 455.188L1135.94 406.648L1115.39 359.221L1086.75 313.72L1051.78 272.8L1011.42 236.93L966.432 206.239L917.55 180.814L865.457 160.782L810.84 146.271L754.339 137.454L696.596 134.457L638.212 137.583L579.87 146.956L522.127 162.837L466.653 185.009L416.359 212.361L371.586 244.293L332.677 280.376L299.932 320.055L273.65 362.816L254.261 408.146L242.147 455.487L237.695 504.241L241.291 553.851L253.49 603.674L274.593 653.07L304.041 699.855L340.468 741.931L383.186 779.042L432.496 798.132L474.957 823.13L477.826 825.227L478.553 825.826L483.604 829.636L485.744 830.792L488.74 832.547L494.133 835.201L494.776 835.5L496.702 836.442L503.637 839.866L513.096 844.96L515.578 846.158L517.89 846.886L526.45 850.696L539.334 856.089L542.373 856.303L544.814 856.346L551.063 858.743L554.444 859.728"/>
                <path stroke-linejoin="round" stroke-linecap="round" stroke-width="1.08501" stroke="#EBEBEB" d="M516.653 848.087L506.424 843.976L484.252 836.7L471.282 830.322L431.388 810.719L383.191 779.043L327.332 767.486L264.539 764.533L194.383 771.21L116.566 788.717L44.2269 815.812L-32.6064 856.604L-113.42 909.981L-197.787 974.614L-285.107 1049.14L-375.038 1132.09L-467.066 1221.98L-560.935 1317.35L-574.547 1331.51"/>
                <path stroke-linejoin="round" stroke-linecap="round" stroke-width="1.08501" stroke="#EBEBEB" d="M484.159 829.046L483.346 828.404L482.918 828.233L465.41 808.158L456.337 800.196L418.926 767.494L409.424 761.074L365.293 731.154L340.166 691.474L322.017 649.526L253.488 603.683L176.228 561.907L89.8917 524.968L-5.86065 493.678L-111.201 468.98L-208.366 456.609L-310.753 455.068L-417.591 463.372L-528.069 480.494L-631.996 503.094"/>
                <path stroke-linejoin="round" stroke-linecap="round" stroke-width="1.08501" stroke="#EBEBEB" d="M503.635 839.877L501.88 837.352L479.193 804.136L472.602 778.967L468.835 774.174L426.631 720.326L423.891 690.235L425.988 660.529L432.709 631.593L380.916 557.5L321.504 482.807L254.259 408.157L178.967 334.192L95.4564 261.554L3.55652 191.056L-96.6476 123.468L-188.248 71.6322L-283.915 28.4437L-382.835 -6.78487L-484.109 -34.8635L-587.052 -56.6939L-631.996 -63.8418"/>
                <path stroke-linejoin="round" stroke-linecap="round" stroke-width="1.08501" stroke="#EBEBEB" d="M475.556 823.911L474.271 824.34L432.495 798.143L396.283 766.812L365.293 731.156L304.04 699.866L234.784 674.483L157.094 655.949L70.63 645.162L-24.951 643.15L-113.47 651.925L-207.167 672.985L-305.402 705.259L-407.447 747.55L-512.744 798.529L-620.611 856.827L-631.996 863.462"/>
                <path stroke-linejoin="round" stroke-linecap="round" stroke-width="1.08501" stroke="#EBEBEB" d="M655.721 883.019L729.772 882.977H729.944L744.968 881.222L803.995 874.501L816.622 871.505L830.619 868.252L877.36 857.294L882.283 855.497L886.435 853.955L948.544 831.269L1013.48 797.883L1070.45 758.502L1119.12 713.987L1159.27 665.318L1190.64 613.312L1213.07 558.865L1226.34 502.792L1230.41 445.821L1225.06 388.805L1210.25 332.432L1185.81 277.387L1151.99 224.738L1110.81 177.482L1063.51 136.048L1010.87 100.692L953.766 71.3708L893.027 48.3428L829.377 31.6496L763.588 21.4618L696.342 18.0801L628.413 21.5903L560.44 32.377L493.195 50.6543L428.476 76.2082L369.663 107.711L317.314 144.566L271.642 186.214L233.075 232.1L202.042 281.624L178.972 334.188L164.333 389.147L158.64 445.905L162.406 503.69L176.233 561.904L200.588 619.69L234.788 674.479L277.335 723.918L327.33 767.492L383.916 804.774L446.068 835.378L484.249 836.705L506.422 843.982L513.099 844.967L515.282 845.609L516.524 846.208L517.251 847.492L526.454 850.702L538.396 854.084L542.376 856.31L551.066 858.75L554.447 859.734L563.608 861.789L577.091 864.871L591.345 868.124L596.738 869.365L600.505 870.221L605.641 870.777L620.28 872.404L635.732 874.159L651.912 875.957L662.142 877.112"/>
                <path stroke-linejoin="round" stroke-linecap="round" stroke-width="1.08501" stroke="#EBEBEB" d="M2101.47 69.9961L2020.35 74.4479L1912.15 85.8762L1806.03 103.811L1702.83 129.15L1603.32 162.795L1508.46 205.556L1405.05 263.213L1310.62 324.551L1225.06 388.8L1148.22 455.189L1079.87 522.989L1083.12 564.809L1079.57 606.457L1069.38 647.292L1016.35 691.68L1010.22 696.774L964.296 743.515L959.074 748.823L926.329 789.273L915.371 802.799L894.739 834.003L893.798 835.458"/>
                <path stroke-linejoin="round" stroke-linecap="round" stroke-width="1.08501" stroke="#EBEBEB" d="M871.988 845.824L872.116 845.567L886.199 817.146L924.167 753.753L969.367 690.188L1022.23 627.01L1019.7 591.611L1011.36 556.383L997.104 521.883L976.986 488.71L952.202 458.79L923.481 432.509L891.335 409.951L856.279 391.246L818.826 376.478L779.532 365.777L738.783 359.271L697.177 357.088L655.101 359.357L613.067 366.291L571.505 378.02L531.654 394.371L495.613 414.446L463.639 437.902L435.945 464.312L412.787 493.333L394.34 524.537L380.898 557.496L372.68 591.782L369.94 627.053L423.874 690.231L470.188 753.753L509.225 817.146L525.662 849.248L525.919 849.719"/>
                <path stroke-linejoin="round" stroke-linecap="round" stroke-width="1.08501" stroke="#EBEBEB" d="M485.272 830.286L483.602 829.645L474.271 824.337L445.079 797.542L433.35 790.137L396.283 766.809L340.466 741.94L277.33 723.919L206.361 713.603L127.26 712.062L39.6829 720.323L-41.6446 738.729L-127.852 770.147L-218.425 813.465L-312.722 867.441L-410.186 930.747L-510.348 1001.89L-612.649 1079.45L-631.996 1094.81"/>
                <path stroke-linejoin="round" stroke-linecap="round" stroke-width="1.08501" stroke="#EBEBEB" d="M2101.46 684.657L2092.69 680.934L1979.47 637.83L1868.74 601.404L1761.26 573.068L1657.67 554.02L1558.71 545.416L1465.22 548.285L1364.21 562.752L1272.78 584.711L1190.64 613.304L1117.4 647.632L1052.64 686.84L1029.57 724.508L985.049 755.841L976.446 761.919L938.821 796.033L930.603 803.481L913.737 823.599L912.753 825.269L911.426 826.382"/>
                <path stroke-linejoin="round" stroke-linecap="round" stroke-width="1.08501" stroke="#EBEBEB" d="M2019.26 1331.52L1972.39 1285.03L1876.68 1192.36L1782.81 1105.04L1691.13 1024.57L1602.14 952.405L1516.31 889.997L1434.17 838.718L1356.23 799.853L1282.99 774.555L1204.36 759.017L1133.65 754.01L1070.43 758.503L1014.35 771.387L965 791.676L922.967 819.243L917.402 821.639"/>
                <path stroke-linejoin="round" stroke-linecap="round" stroke-width="1.08501" stroke="#EBEBEB" d="M488.738 832.548L485.742 830.793L484.031 829.209L483.346 828.396L465.41 808.15L447.476 780.113L434.42 750.407L426.631 720.316L422.093 715.437L373.04 662.83L367.604 657.907L311.402 607.142L304.896 602.177L241.29 553.852L162.401 503.685L74.4396 457.457L-22.9394 415.894L-129.864 379.853L-228.27 356.954L-331.684 344.283L-439.336 340.859L-550.412 345.696L-631.996 354.299"/>
                <path stroke-linejoin="round" stroke-linecap="round" stroke-width="1.08501" stroke="#EBEBEB" d="M2101.42 -206H-631.996V1334H2101.42V-206Z"/>
                </g>
                </g>
                <defs>
                <clipPath id="clip0_4054_452">
                <rect fill="white" height="1334" width="1440"/>
                </clipPath>
                </defs>
                </svg>