<svg xmlns="http://www.w3.org/2000/svg" viewBox="0 0 1080 152" width="1080" height="152"
    style="width: 100%; height: 100%; transform: translate3d(0px, 0px, 0px);"
    preserveAspectRatio="xMidYMid meet">
    <defs>
        <clipPath id="__lottie_element_210">
            <rect width="1080" height="152" x="0" y="0"></rect>
        </clipPath>
        <clipPath id="__lottie_element_212">
            <path fill="#ffffff" clip-rule="nonzero"
                d=" M157.63963317871094,-43.456851959228516 C157.63963317871094,-43.456851959228516 150.2848358154297,38.107913970947266 150.2848358154297,38.107913970947266 C150.2848358154297,38.107913970947266 461.4996643066406,40.78238296508789 461.4996643066406,40.78238296508789 C461.4996643066406,40.78238296508789 461.4996643066406,-42.1196174621582 461.4996643066406,-42.1196174621582 C461.4996643066406,-42.1196174621582 157.63963317871094,-43.456851959228516 157.63963317871094,-43.456851959228516"
                fill-opacity="1"></path>
        </clipPath>
        <clipPath id="__lottie_element_214">
            <path fill="#ffffff" clip-rule="nonzero"
                d=" M-499.1520080566406,-74.73100280761719 C-499.1520080566406,-74.73100280761719 -505.1520080566406,80.73100280761719 -505.1520080566406,80.73100280761719 C-505.1520080566406,80.73100280761719 -486.8479919433594,85.73100280761719 -486.8479919433594,85.73100280761719 C-486.8479919433594,85.73100280761719 -486.8479919433594,-63.73099899291992 -486.8479919433594,-63.73099899291992 C-486.8479919433594,-63.73099899291992 -499.1520080566406,-74.73100280761719 -499.1520080566406,-74.73100280761719"
                fill-opacity="1"></path>
        </clipPath>
        <clipPath id="__lottie_element_216">
            <path fill="#ffffff" clip-rule="nonzero"
                d=" M544.3389892578125,-105.31199645996094 C544.3389892578125,-105.31199645996094 529.5142822265625,-112.22506713867188 529.5142822265625,-112.22506713867188 C529.5142822265625,-112.22506713867188 529.5142822265625,68.77493286132812 529.5142822265625,68.77493286132812 C529.5142822265625,68.77493286132812 544.3389892578125,75.68800354003906 544.3389892578125,75.68800354003906 C544.3389892578125,75.68800354003906 544.3389892578125,-105.31199645996094 544.3389892578125,-105.31199645996094"
                fill-opacity="1"></path>
        </clipPath>
    </defs>
    <g clip-path="url(#__lottie_element_210)">
        <g clip-path="url(#__lottie_element_216)" style="display: none;"
            transform="matrix(1,0,0,1,534.6610107421875,47.3120002746582)" opacity="1">
            <g opacity="1" transform="matrix(1,0,0,1,0,0)">
                <path fill="rgb(122,25,189)" fill-opacity="1"
                    d=" M-511.27301025390625,46.308998107910156 C-503.54901123046875,45.262001037597656 -499.0429992675781,44.65700149536133 -490.16900634765625,43.48500061035156 C-481.4880065917969,42.3380012512207 -472.8039855957031,41.20800018310547 -464.1189880371094,40.09199905395508 C-447.40301513671875,37.94499969482422 -430.7409973144531,35.994998931884766 -413.9440002441406,34.61600112915039 C-380.4169921875,31.86400032043457 -346.8710021972656,29.343000411987305 -313.30999755859375,27.052000045776367 C-246.61300659179688,22.499000549316406 -179.82699584960938,19.93000030517578 -113.11100006103516,15.859000205993652 C20.990999221801758,7.675000190734863 155.31199645996094,3.0940001010894775 289.65899658203125,2.0920000076293945 C327.7049865722656,1.8079999685287476 365.7619934082031,2.078000068664551 403.80499267578125,2.5190000534057617 C422.8280029296875,2.739000082015991 441.8500061035156,3.0320000648498535 460.8710021972656,3.3959999084472656 C470.3800048828125,3.578000068664551 479.8890075683594,3.7769999504089355 489.39801025390625,3.996999979019165 C499.61199951171875,4.232999801635742 509.90301513671875,1.281000018119812 519.8909912109375,-0.7239999771118164 C539.9349975585938,-4.747000217437744 538.926025390625,-35.5880012512207 519.8909912109375,-40.2599983215332 C511.27899169921875,-42.374000549316406 502.3500061035156,-45.369998931884766 493.4729919433594,-45.90700149536133 C484.6960144042969,-46.4379997253418 475.77801513671875,-46.125 466.9840087890625,-46.21099853515625 C450.0010070800781,-46.37699890136719 433.01800537109375,-46.486000061035156 416.03399658203125,-46.5369987487793 C382.06201171875,-46.638999938964844 348.0889892578125,-46.512001037597656 314.1180114746094,-46.154998779296875 C246.8730010986328,-45.44900131225586 179.64700317382812,-44.30699920654297 112.43399810791016,-42.06800079345703 C44.650001525878906,-39.810001373291016 -23.104000091552734,-36.63999938964844 -90.802001953125,-32.55099868774414 C-157.71499633789062,-28.509000778198242 -224.47900390625,-21.61199951171875 -291.1239929199219,-14.456999778747559 C-328.74798583984375,-10.418000221252441 -366.3399963378906,-6.091000080108643 -403.8970031738281,-1.4759999513626099 C-441.2569885253906,3.115000009536743 -478.7340087890625,6.258999824523926 -516.1909790039062,9.968999862670898 C-527.2169799804688,11.060999870300293 -535.9520263671875,19.079999923706055 -534.3599853515625,30.92799949645996 C-532.7440185546875,42.952999114990234 -522.280029296875,47.801998138427734 -511.27301025390625,46.308998107910156 C-511.27301025390625,46.308998107910156 -511.27301025390625,46.308998107910156 -511.27301025390625,46.308998107910156z"></path>
            </g>
        </g>
        <g clip-path="url(#__lottie_element_214)" style="display: none;"
            transform="matrix(1,0,0,1,593.9349975585938,76.25700378417969)" opacity="1">
            <g opacity="1" transform="matrix(1,0,0,1,0,0)">
                <path fill="rgb(122,25,189)" fill-opacity="1"
                    d=" M455.1669921875,-24.437000274658203 C455.2040100097656,-24.43899917602539 455.239990234375,-24.437999725341797 455.2770080566406,-24.434999465942383 C448.0820007324219,-36.9739990234375 440.885986328125,-49.51300048828125 433.6910095214844,-62.051998138427734 C433.6910095214844,-62.051998138427734 433.6910095214844,-62.05099868774414 433.6910095214844,-62.05099868774414 C438.6709899902344,-65.87999725341797 443.6510009765625,-69.70999908447266 448.6310119628906,-73.53900146484375 C455.6830139160156,-75.38300323486328 457.17999267578125,-74.62699890136719 454,-74.27799987792969 C452.8500061035156,-74.1520004272461 451.70001220703125,-74.0199966430664 450.54998779296875,-73.89199829101562 C446.3089904785156,-73.41999816894531 442.0669860839844,-72.9540023803711 437.82501220703125,-72.48600006103516 C422.177001953125,-70.76100158691406 406.5299987792969,-69.03199768066406 390.8840026855469,-67.29199981689453 C336.4779968261719,-61.24100112915039 282.0840148925781,-55.077999114990234 227.70399475097656,-48.79100036621094 C154.1179962158203,-40.284000396728516 80.55699920654297,-31.555999755859375 7.033999919891357,-22.523000717163086 C-32.64099884033203,-17.64900016784668 -72.30500030517578,-12.684000015258789 -111.9530029296875,-7.60099983215332 C-131.86500549316406,-5.047999858856201 -151.7729949951172,-2.4649999141693115 -171.67599487304688,0.15399999916553497 C-176.4510040283203,0.7820000052452087 -181.22500610351562,1.4119999408721924 -185.99899291992188,2.0439999103546143 C-188.16200256347656,2.3310000896453857 -190.3260040283203,2.618000030517578 -192.48899841308594,2.9049999713897705 C-194.9499969482422,3.2320001125335693 -197.41400146484375,3.5450000762939453 -199.87100219726562,3.8940000534057617 C-194.80599975585938,3.174999952316284 -199.3800048828125,3.802000045776367 -200.25799560546875,3.9110000133514404 C-210.11399841308594,5.138999938964844 -219.968994140625,6.375999927520752 -229.822998046875,7.624000072479248 C-301.7139892578125,16.72800064086914 -373.5719909667969,26.249000549316406 -445.2040100097656,37.22600173950195 C-452.56298828125,38.354000091552734 -459.9200134277344,39.5 -467.27301025390625,40.66600036621094 C-476.3420104980469,42.104000091552734 -482.1809997558594,53.895999908447266 -479.4960021972656,62.19300079345703 C-476.29998779296875,72.06800079345703 -467.69500732421875,75.9209976196289 -457.968994140625,74.41600036621094 C-425.5559997558594,69.4010009765625 -393.0849914550781,64.76899719238281 -360.5880126953125,60.33700180053711 C-356.3420104980469,59.757999420166016 -352.0950012207031,59.183998107910156 -347.8479919433594,58.61000061035156 C-343.68798828125,58.04800033569336 -352.04901123046875,59.172000885009766 -347.8800048828125,58.61399841308594 C-346.70599365234375,58.457000732421875 -345.5329895019531,58.29999923706055 -344.3590087890625,58.143001556396484 C-341.9989929199219,57.82699966430664 -339.6390075683594,57.51300048828125 -337.27899169921875,57.19900131225586 C-328.08599853515625,55.97800064086914 -318.8900146484375,54.770999908447266 -309.6929931640625,53.57699966430664 C-291.1159973144531,51.165000915527344 -272.53399658203125,48.80500030517578 -253.94500732421875,46.486000061035156 C-174.9149932861328,36.62699890136719 -95.70099639892578,28.36199951171875 -16.474000930786133,20.253999710083008 C58.20600128173828,12.611000061035156 132.9199981689453,5.300000190734863 207.65499877929688,-1.7799999713897705 C264.7980041503906,-7.192999839782715 321.9530029296875,-12.468000411987305 379.1199951171875,-17.617000579833984 C404.2799987792969,-19.882999420166016 429.4849853515625,-21.839000701904297 454.6210021972656,-24.365999221801758 C463.4339904785156,-25.25200080871582 472.56298828125,-27.84000015258789 476.8630065917969,-36.81700134277344 C480.81298828125,-45.06399917602539 481.66400146484375,-53.847999572753906 476.8630065917969,-62.051998138427734 C472.0870056152344,-70.21399688720703 464.2959899902344,-73.56999969482422 455.2770080566406,-74.43299865722656 C455.239990234375,-74.43699645996094 455.2040100097656,-74.43800354003906 455.1669921875,-74.43699645996094 C442.0840148925781,-74.85399627685547 429.57598876953125,-62.63999938964844 430.1669921875,-49.4370002746582 C430.77899169921875,-35.77399826049805 441.1499938964844,-24.584999084472656 455.1669921875,-24.437000274658203 C455.1669921875,-24.437000274658203 455.1669921875,-24.437000274658203 455.1669921875,-24.437000274658203z"></path>
            </g>
        </g>
        <g clip-path="url(#__lottie_element_212)" style="display: block;"
            transform="matrix(1,0,0,1,557.2459716796875,109.85700225830078)" opacity="1">
            <g opacity="1" transform="matrix(1,0,0,1,0,0)">
                <path fill="rgb(122,25,189)" fill-opacity="1"
                    d=" M-425.9320068359375,41.441001892089844 C-397.4849853515625,40.44200134277344 -369.3299865722656,36.874000549316406 -340.98699951171875,34.5359992980957 C-313.4830017089844,32.266998291015625 -285.9119873046875,30.75200080871582 -258.4049987792969,28.45599937438965 C-202.82699584960938,23.81800079345703 -147.33099365234375,18.275999069213867 -91.80799865722656,13.031000137329102 C17.989999771118164,2.6589999198913574 128.11099243164062,-6.438000202178955 238.49200439453125,-5.377999782562256 C269.4049987792969,-5.080999851226807 300.31500244140625,-3.98799991607666 331.15899658203125,-1.88100004196167 C346.49700927734375,-0.8330000042915344 361.8179931640625,0.4650000035762787 377.1109924316406,2.0429999828338623 C384.7340087890625,2.8299999237060547 392.3500061035156,3.684999942779541 399.9570007324219,4.613999843597412 C403.43798828125,5.039000034332275 406.9150085449219,5.501999855041504 410.3949890136719,5.935999870300293 C414.010009765625,6.38700008392334 405.9219970703125,5.309999942779541 411.9849853515625,6.146999835968018 C414.5050048828125,6.494999885559082 417.02398681640625,6.8480000495910645 419.5419921875,7.208000183105469 C430.77899169921875,8.814000129699707 441.5849914550781,3.825000047683716 443.25299072265625,-8.588000297546387 C443.9570007324219,-13.82699966430664 442.74700927734375,-18.440000534057617 439.51300048828125,-22.625999450683594 C435.5450134277344,-27.761999130249023 430.8160095214844,-29.288999557495117 424.5929870605469,-30.113000869750977 C315.3529968261719,-44.57600021362305 204.66700744628906,-43.505001068115234 94.90599822998047,-36.31800079345703 C-15.970999717712402,-29.058000564575195 -126.26499938964844,-15.28600025177002 -236.82000732421875,-4.474999904632568 C-268.2309875488281,-1.402999997138977 -299.6659851074219,1.4299999475479126 -331.13800048828125,3.808000087738037 C-362.6409912109375,6.188000202178955 -394.3689880371094,5.331999778747559 -425.9320068359375,6.440999984741211 C-435.07000732421875,6.76200008392334 -443.8659973144531,14.260000228881836 -443.4320068359375,23.94099998474121 C-443.2860107421875,27.20199966430664 -442.2770080566406,30.392000198364258 -440.5989990234375,33.137001037597656 C-437.5409851074219,38.13999938964844 -432.260009765625,41.66299819946289 -425.9320068359375,41.441001892089844 C-425.9320068359375,41.441001892089844 -425.9320068359375,41.441001892089844 -425.9320068359375,41.441001892089844z"></path>
            </g>
        </g>
    </g>
</svg>